<svg width="45" height="45" viewBox="0 0 45 45" xmlns="http://www.w3.org/2000/svg"><title>icon-Artboard</title><path d="M18.326 35.067c-8.07 2.421-8.07-4.034-11.298-4.841m22.595 9.683v-6.246a5.439 5.439 0 0 0-1.517-4.212c5.068-.565 10.394-2.486 10.394-11.298a8.78 8.78 0 0 0-2.42-6.052 8.183 8.183 0 0 0-.146-6.085s-1.905-.564-6.31 2.39a21.595 21.595 0 0 0-11.298 0c-4.406-2.954-6.31-2.39-6.31-2.39a8.183 8.183 0 0 0-.146 6.085 8.78 8.78 0 0 0-2.421 6.1c0 8.748 5.326 10.669 10.394 11.298a5.439 5.439 0 0 0-1.517 4.164v6.246" stroke="#000" stroke-width="2" fill="none" fill-rule="evenodd" stroke-linecap="round" stroke-linejoin="round"/></svg>