<svg width="49" height="50" viewBox="0 0 49 50" xmlns="http://www.w3.org/2000/svg"><title>hidden-code-icon</title><g fill="none" fill-rule="evenodd"><g opacity=".38" stroke="#000" stroke-width="2" stroke-linecap="round" stroke-linejoin="round"><path d="M1 12.72h31M1 25.28h31M13.237 1l-4.08 36M24.658 1l-4.08 36"/></g><g transform="translate(16 17)"><circle fill="#AEAEAE" cx="16.5" cy="16.5" r="16.5"/><path d="M20.955 20.955A7.552 7.552 0 0 1 16.5 22.5c-5.25 0-8.25-6-8.25-6a13.838 13.838 0 0 1 3.795-4.455m2.88-1.365a6.84 6.84 0 0 1 1.575-.18c5.25 0 8.25 6 8.25 6a13.875 13.875 0 0 1-1.62 2.392m-5.04-.802a2.25 2.25 0 1 1-3.18-3.18M8.25 8.25l16.5 16.5" stroke="#FFF" stroke-width="2" stroke-linecap="round" stroke-linejoin="round"/></g></g></svg>