<?xml version="1.0" encoding="UTF-8"?>
<svg width="49px" height="50px" viewBox="0 0 49 50" version="1.1" xmlns="http://www.w3.org/2000/svg" xmlns:xlink="http://www.w3.org/1999/xlink">
    <!-- Generator: Sketch 46.2 (44496) - http://www.bohemiancoding.com/sketch -->
    <title>hidden-code-icon</title>
    <desc>Created with Sketch.</desc>
    <defs></defs>
    <g id="Page-1" stroke="none" stroke-width="1" fill="none" fill-rule="evenodd">
        <g id="Portfolio-item" transform="translate(-695.000000, -1695.000000)">
            <g id="no-code-section" transform="translate(531.000000, 1665.000000)">
                <g id="hidden-code-icon" transform="translate(165.000000, 31.000000)">
                    <g id="hash" opacity="0.379999995" stroke="#000000" stroke-width="2" stroke-linecap="round" stroke-linejoin="round">
                        <path d="M0,11.7209302 L31,11.7209302" id="Shape"></path>
                        <path d="M0,24.2790698 L31,24.2790698" id="Shape"></path>
                        <path d="M12.2368421,0 L8.15789474,36" id="Shape"></path>
                        <path d="M23.6578947,0 L19.5789474,36" id="Shape"></path>
                    </g>
                    <g id="hidden" transform="translate(15.000000, 16.000000)">
                        <circle id="Oval-4" fill="#AEAEAE" cx="16.5" cy="16.5" r="16.5"></circle>
                        <g id="eye-off" transform="translate(8.250000, 8.250000)"></g>
                        <path d="M20.955,20.955 C19.6729425,21.9322517 18.1118306,22.4736474 16.5,22.5 C11.25,22.5 8.25,16.5 8.25,16.5 C9.18291742,14.7614218 10.4768516,13.2424556 12.045,12.045 M14.925,10.68 C15.4412492,10.5591596 15.9697981,10.4987541 16.5,10.5 C21.75,10.5 24.75,16.5 24.75,16.5 C24.2947347,17.3517055 23.7517916,18.1535521 23.13,18.8925 M18.09,18.09 C17.5290883,18.6919595 16.6843334,18.9397475 15.8871333,18.7361566 C15.0899332,18.5325657 14.4674343,17.9100668 14.2638434,17.1128667 C14.0602525,16.3156666 14.3080405,15.4709117 14.91,14.91" id="Shape" stroke="#FFFFFF" stroke-width="2" stroke-linecap="round" stroke-linejoin="round"></path>
                        <path d="M8.25,8.25 L24.75,24.75" id="Shape" stroke="#FFFFFF" stroke-width="2" stroke-linecap="round" stroke-linejoin="round"></path>
                    </g>
                </g>
            </g>
        </g>
    </g>
</svg>