<?xml version="1.0" encoding="UTF-8"?>
<svg width="34px" height="36px" viewBox="0 0 34 36" version="1.1" xmlns="http://www.w3.org/2000/svg" xmlns:xlink="http://www.w3.org/1999/xlink">
    <!-- Generator: Sketch 45.2 (43514) - http://www.bohemiancoding.com/sketch -->
    <title>icon-github</title>
    <desc>Created with Sketch.</desc>
    <defs></defs>
    <g id="Page-1" stroke="none" stroke-width="1" fill="none" fill-rule="evenodd" stroke-linecap="round" opacity="0.33" stroke-linejoin="round">
        <g id="Desktop-HD" transform="translate(-623.000000, -4553.000000)" stroke="#FFFFFF" stroke-width="2">
            <g id="contact" transform="translate(0.000000, 3730.000000)">
                <g id="social" transform="translate(586.000000, 759.000000)">
                    <g id="github" transform="translate(38.000000, 64.000000)">
                        <path d="M11.3256997,30.0674419 C3.25597959,32.4883579 3.25597959,26.0325818 0.0280915396,25.2256098 M22.6233079,34.909274 L22.6233079,28.6633106 C22.745779,27.1064958 22.1931775,25.5721448 21.1062005,24.4509167 C26.1739847,23.8860363 31.5,21.9654429 31.5,13.1533085 C31.4995858,10.8999635 30.6328151,8.73303672 29.079084,7.10101844 C29.8148098,5.12959638 29.7627894,2.95051828 28.933829,1.01644947 C28.933829,1.01644947 27.0293751,0.45156906 22.6233079,3.40508662 C18.9241628,2.40253969 15.0248448,2.40253969 11.3256997,3.40508662 C6.91963252,0.45156906 5.01517857,1.01644947 5.01517857,1.01644947 C4.18621818,2.95051828 4.13419775,5.12959638 4.86992361,7.10101844 C3.30460306,8.7451427 2.43693955,10.9316547 2.44900758,13.2017268 C2.44900758,21.9493035 7.77502285,23.8698968 12.8428071,24.499335 C11.7689203,25.6090241 11.2173579,27.1228871 11.3256997,28.6633106 L11.3256997,34.909274" id="Shape"></path>
                    </g>
                </g>
            </g>
        </g>
    </g>
</svg>